<?xml version="1.0" encoding="UTF-8" standalone="no"?>
<svg
   xmlns:dc="http://purl.org/dc/elements/1.1/"
   xmlns:cc="http://creativecommons.org/ns#"
   xmlns:rdf="http://www.w3.org/1999/02/22-rdf-syntax-ns#"
   xmlns:svg="http://www.w3.org/2000/svg"
   xmlns="http://www.w3.org/2000/svg"
   xmlns:xlink="http://www.w3.org/1999/xlink"
   viewBox="0 0 466 466"
   height="466"
   width="466"
   id="svg928"
   version="1.1">
  <metadata
     id="metadata934">
    <rdf:RDF>
      <cc:Work
         rdf:about="">
        <dc:format>image/svg+xml</dc:format>
        <dc:type
           rdf:resource="http://purl.org/dc/dcmitype/StillImage" />
        <dc:title></dc:title>
      </cc:Work>
    </rdf:RDF>
  </metadata>
  <defs
     id="defs932">
    <linearGradient
       id="linearGradient2785">
      <stop
         id="stop2781"
         offset="0"
         style="stop-color:#5c03ab;stop-opacity:1" />
      <stop
         id="stop2783"
         offset="1"
         style="stop-color:#a003b3;stop-opacity:1" />
    </linearGradient>
    <linearGradient
       id="linearGradient1810">
      <stop
         style="stop-color:#07b6ff;stop-opacity:1"
         offset="0"
         id="stop1806" />
      <stop
         style="stop-color:#c807ff;stop-opacity:1"
         offset="1"
         id="stop1808" />
    </linearGradient>
    <linearGradient
       id="linearGradient1208">
      <stop
         style="stop-color:#ff07bf;stop-opacity:1"
         offset="0"
         id="stop1204" />
      <stop
         style="stop-color:#d807ff;stop-opacity:0"
         offset="1"
         id="stop1206" />
    </linearGradient>
    <linearGradient
       id="linearGradient1113">
      <stop
         id="stop1109"
         offset="0"
         style="stop-color:#d807ff;stop-opacity:1" />
      <stop
         id="stop1111"
         offset="1"
         style="stop-color:#d807ff;stop-opacity:0" />
    </linearGradient>
    <linearGradient
       gradientUnits="userSpaceOnUse"
       y2="82.139702"
       x2="406.66388"
       y1="278.25052"
       x1="145.18282"
       id="linearGradient1115"
       xlink:href="#linearGradient1113" />
    <linearGradient
       y2="82.139702"
       x2="406.66388"
       y1="278.25052"
       x1="145.18282"
       gradientUnits="userSpaceOnUse"
       id="linearGradient1178"
       xlink:href="#linearGradient1208" />
    <filter
       id="filter1650"
       style="color-interpolation-filters:sRGB">
      <feGaussianBlur
         id="feGaussianBlur1648"
         result="blur"
         stdDeviation="15 15" />
    </filter>
    <filter
       id="filter1646"
       style="color-interpolation-filters:sRGB">
      <feGaussianBlur
         id="feGaussianBlur1644"
         result="blur"
         stdDeviation="15 15" />
    </filter>
    <filter
       id="filter1642"
       style="color-interpolation-filters:sRGB">
      <feGaussianBlur
         id="feGaussianBlur1640"
         result="blur"
         stdDeviation="10 10" />
    </filter>
    <filter
       id="filter1626"
       style="color-interpolation-filters:sRGB">
      <feGaussianBlur
         id="feGaussianBlur1624"
         result="blur"
         stdDeviation="5 5" />
    </filter>
    <filter
       id="filter1622"
       style="color-interpolation-filters:sRGB">
      <feGaussianBlur
         id="feGaussianBlur1620"
         result="blur"
         stdDeviation="5 5" />
    </filter>
    <filter
       id="filter1606"
       style="color-interpolation-filters:sRGB">
      <feGaussianBlur
         id="feGaussianBlur1604"
         result="blur"
         stdDeviation="10 10" />
    </filter>
    <filter
       id="filter3283"
       style="color-interpolation-filters:sRGB;">
      <feGaussianBlur
         id="feGaussianBlur3281"
         result="blur"
         stdDeviation="15 15" />
    </filter>
    <linearGradient
       gradientUnits="userSpaceOnUse"
       y2="182.45018"
       x2="391.03006"
       y1="331.64972"
       x1="84.145706"
       id="linearGradient1804"
       xlink:href="#linearGradient1810" />
    <linearGradient
       gradientUnits="userSpaceOnUse"
       y2="182.45018"
       x2="391.03006"
       y1="331.64972"
       x1="84.145706"
       id="linearGradient1804-2"
       xlink:href="#linearGradient2785"
       gradientTransform="translate(0,-2e-6)" />
  </defs>
  <path
     style="fill:url(#linearGradient1804);fill-opacity:1;stroke:none;stroke-width:29.13868713;stroke-miterlimit:4;stroke-dasharray:none;stroke-opacity:1"
     d="m 117.94336,56.888672 v 60.580078 l -53.03711,-42.478516 0.002,176.132816 a 33.502948,33.502948 0 0 0 -11.060547,-1.91993 33.502948,33.502948 0 0 0 -33.5,33.50391 33.502948,33.502948 0 0 0 33.5,33.50195 33.502948,33.502948 0 0 0 33.503906,-33.50195 V 120.01367 l 30.591801,23.01367 v 171.04688 a 48.919973,48.919973 0 0 0 -16.14844,-2.80078 48.919973,48.919973 0 0 0 -48.919923,48.91992 48.919973,48.919973 0 0 0 48.919923,48.91797 48.919973,48.919973 0 0 0 48.92188,-48.91797 v -237.5625 l 54.14648,40.74023 v -36.86328 z m 119.93945,56.689448 c -0.29871,-0.005 -0.54295,2.5e-4 -0.75781,0.0156 -1.03129,0.0739 -1.4058,0.34147 -4.11328,0.31641 -6.8508,-0.0633 -12.40659,0.75841 -18.64649,2.23632 l 4.52539,3.62696 v 50.63086 c 2.38849,-0.5272 4.80596,-0.98163 7.26563,-1.30664 l 9.25586,10.77343 8.22461,-11.30468 c 3.19603,0.22351 6.34135,0.62102 9.42969,1.18359 l 5.35351,12.81445 11.11914,-8.0664 c 3.0268,1.2151 5.97547,2.57451 8.81836,4.11328 l 1.11524,13.625 12.84961,-4.16797 c 2.55928,2.12761 4.97417,4.41597 7.26757,6.82422 l -3.08984,13.04883 13.31445,0.01 c 1.80723,2.83776 3.47246,5.77662 4.94141,8.83008 l -6.9082,11.35742 12.56445,4.09375 c 0.85216,3.27244 1.50078,6.62471 1.96484,10.03906 l -9.98633,8.58399 10.66993,7.75976 c -0.18272,3.4434 -0.583,6.82644 -1.15821,10.14844 l -12.20312,5.09961 7.83594,10.79883 c -1.20314,3.14645 -2.58044,6.20227 -4.13086,9.15625 l -13.37891,1.09375 4.18555,12.90039 c -2.06108,2.55138 -4.26686,4.97895 -6.60352,7.27539 l -13.28515,-3.14844 -0.008,13.83008 c -2.66455,1.73595 -5.43085,3.32563 -8.29101,4.76172 l -11.90235,-7.24414 -4.37109,13.42578 c -2.96476,0.78986 -5.98864,1.44033 -9.07227,1.91211 l -9.26953,-10.78906 -8.48437,11.6582 c -3.01835,-0.15935 -5.99171,-0.47943 -8.91797,-0.94141 l -5.60547,-13.41406 -11.94727,8.66992 c -2.70298,-1.04915 -5.33376,-2.23189 -7.89453,-3.53906 l -1.21093,-14.80078 -14.32227,4.64258 c -2.15721,-1.77843 -4.21779,-3.66408 -6.18945,-5.64258 l 3.48242,-14.70508 -15.20703,-0.0137 c -0.128,-0.20242 -0.24285,-0.41167 -0.36914,-0.61523 v 28.89062 c 12.34368,12.1271 27.67987,21.2222 44.79687,26.02149 -15.08082,-0.72936 -29.17522,-4.91756 -44.79687,-9.41602 v 13.88867 c 36.91943,9.59892 70.06731,14.73646 110.89062,8.12109 59.31082,-9.61124 81.05434,-34.15878 110.29492,-52.82812 29.24059,-18.66931 45.25782,-51.06726 47.83985,-55.00977 6.96407,0.40814 11.88476,0.0625 11.88476,0.0625 0,0 -45.75745,-64.17939 -80.74218,-90.39648 -34.98472,-26.21709 -72.66461,-46.26216 -103.34961,-51.38281 -16.78087,-2.80036 -21.58673,-3.46721 -23.67774,-3.50782 z m -73.14062,37.16016 v 11.72656 c 3.33326,-0.49489 7.47735,-0.89454 13.44726,-1.61132 z m 19.03711,14.32031 c -6.91606,4.19879 -13.29672,9.19201 -19.03711,14.83399 v 33.88476 l 12.05273,-0.98632 -4.60937,-14.22657 c 1.84311,-2.17342 3.79113,-4.25225 5.83984,-6.23047 l 14.47266,3.42969 0.008,-14.69531 c 2.33911,-1.44486 4.75807,-2.77437 7.24023,-3.99414 z m 125.33008,13.66016 c 11.35558,7.86976 21.2392,17.38104 37.70507,28.80078 22.40476,15.53862 46.58767,39.94046 59.85743,45.56055 13.26974,5.62008 19.0081,5.22266 26.64453,5.70312 -3.80199,3.84584 -26.34877,29.41492 -58.86524,47.79492 -32.51648,18.38001 -63.77864,39.22913 -102.41211,45.42383 40.39703,-14.26467 69.44336,-52.81793 69.44336,-98.02539 0,-29.58441 -12.45605,-56.30783 -32.37304,-75.25781 z m -71.56641,45.18164 c -16.61071,-1.7e-4 -30.07635,13.46547 -30.07617,30.07617 0.001,16.60922 13.46695,30.07049 30.07617,30.07032 16.60922,1.7e-4 30.07424,-13.4611 30.07617,-30.07032 1.8e-4,-16.6107 -13.46546,-30.07634 -30.07617,-30.07617 z m -72.80078,6.66211 v 4.27344 l 2.38281,-0.99414 z m 0,47.625 v 8.33008 l 4.23242,-6.95313 z"
     id="path1112" />
  <path
     style="fill:url(#linearGradient1804-2);fill-opacity:1;stroke:none;stroke-width:29.13868713;stroke-miterlimit:4;stroke-dasharray:none;stroke-opacity:1"
     d="m 117.94336,56.88867 v 60.58008 l -53.03711,-42.478518 0.002,176.132818 a 33.502948,33.502948 0 0 0 -11.060547,-1.91993 33.502948,33.502948 0 0 0 -33.5,33.50391 33.502948,33.502948 0 0 0 33.5,33.50195 33.502948,33.502948 0 0 0 33.503906,-33.50195 V 120.01367 l 30.591801,23.01367 v 171.04688 a 48.919973,48.919973 0 0 0 -16.14844,-2.80078 48.919973,48.919973 0 0 0 -48.919923,48.91992 48.919973,48.919973 0 0 0 48.919923,48.91797 48.919973,48.919973 0 0 0 48.92188,-48.91797 v -237.5625 l 54.14648,40.74023 v -36.86328 z m 119.93945,56.68945 c -0.29871,-0.005 -0.54295,2.5e-4 -0.75781,0.0156 -1.03129,0.0739 -1.4058,0.34147 -4.11328,0.31641 -6.8508,-0.0633 -12.40659,0.75841 -18.64649,2.23632 l 4.52539,3.62696 v 50.63086 c 2.38849,-0.5272 4.80596,-0.98163 7.26563,-1.30664 l 9.25586,10.77343 8.22461,-11.30468 c 3.19603,0.22351 6.34135,0.62102 9.42969,1.18359 l 5.35351,12.81445 11.11914,-8.0664 c 3.0268,1.2151 5.97547,2.57451 8.81836,4.11328 l 1.11524,13.625 12.84961,-4.16797 c 2.55928,2.12761 4.97417,4.41597 7.26757,6.82422 l -3.08984,13.04883 13.31445,0.01 c 1.80723,2.83776 3.47246,5.77662 4.94141,8.83008 l -6.9082,11.35742 12.56445,4.09375 c 0.85216,3.27244 1.50078,6.62471 1.96484,10.03906 l -9.98633,8.58399 10.66993,7.75976 c -0.18272,3.4434 -0.583,6.82644 -1.15821,10.14844 l -12.20312,5.09961 7.83594,10.79883 c -1.20314,3.14645 -2.58044,6.20227 -4.13086,9.15625 l -13.37891,1.09375 4.18555,12.90039 c -2.06108,2.55138 -4.26686,4.97895 -6.60352,7.27539 l -13.28515,-3.14844 -0.008,13.83008 c -2.66455,1.73595 -5.43085,3.32563 -8.29101,4.76172 l -11.90235,-7.24414 -4.37109,13.42578 c -2.96476,0.78986 -5.98864,1.44033 -9.07227,1.91211 l -9.26953,-10.78906 -8.48437,11.6582 c -3.01835,-0.15935 -5.99171,-0.47943 -8.91797,-0.94141 l -5.60547,-13.41406 -11.94727,8.66992 c -2.70298,-1.04915 -5.33376,-2.23189 -7.89453,-3.53906 l -1.21093,-14.80078 -14.32227,4.64258 c -2.15721,-1.77843 -4.21779,-3.66408 -6.18945,-5.64258 l 3.48242,-14.70508 -15.20703,-0.0137 c -0.128,-0.20242 -0.24285,-0.41167 -0.36914,-0.61523 v 28.89062 c 12.34368,12.1271 27.67987,21.2222 44.79687,26.02149 -15.08082,-0.72936 -29.17522,-4.91756 -44.79687,-9.41602 v 13.88867 c 36.91943,9.59892 70.06731,14.73646 110.89062,8.12109 59.31082,-9.61124 81.05434,-34.15878 110.29492,-52.82812 29.24059,-18.66931 45.25782,-51.06726 47.83985,-55.00977 6.96407,0.40814 11.88476,0.0625 11.88476,0.0625 0,0 -45.75745,-64.17939 -80.74218,-90.39648 -34.98472,-26.21709 -72.66461,-46.26216 -103.34961,-51.38281 -16.78087,-2.80036 -21.58673,-3.46721 -23.67774,-3.50782 z m -73.14062,37.16016 v 11.72656 c 3.33326,-0.49489 7.47735,-0.89454 13.44726,-1.61132 z m 19.03711,14.32031 c -6.91606,4.19879 -13.29672,9.19201 -19.03711,14.83399 v 33.88476 l 12.05273,-0.98632 -4.60937,-14.22657 c 1.84311,-2.17342 3.79113,-4.25225 5.83984,-6.23047 l 14.47266,3.42969 0.008,-14.69531 c 2.33911,-1.44486 4.75807,-2.77437 7.24023,-3.99414 z m 125.33008,13.66016 c 11.35558,7.86976 21.2392,17.38104 37.70507,28.80078 22.40476,15.53862 46.58767,39.94046 59.85743,45.56055 13.26974,5.62008 19.0081,5.22266 26.64453,5.70312 -3.80199,3.84584 -26.34877,29.41492 -58.86524,47.79492 -32.51648,18.38001 -63.77864,39.22913 -102.41211,45.42383 40.39703,-14.26467 69.44336,-52.81793 69.44336,-98.02539 0,-29.58441 -12.45605,-56.30783 -32.37304,-75.25781 z m -71.56641,45.18164 c -16.61071,-1.7e-4 -30.07635,13.46547 -30.07617,30.07617 0.001,16.60922 13.46695,30.07049 30.07617,30.07032 16.60922,1.7e-4 30.07424,-13.4611 30.07617,-30.07032 1.8e-4,-16.6107 -13.46546,-30.07634 -30.07617,-30.07617 z m -72.80078,6.66211 v 4.27344 l 2.38281,-0.99414 z m 0,47.625 v 8.33008 l 4.23242,-6.95313 z"
     id="path1112-9" />
</svg>
