<?xml version="1.0" encoding="UTF-8" standalone="no"?>
<!-- Created with Inkscape (http://www.inkscape.org/) -->

<svg
   xmlns:dc="http://purl.org/dc/elements/1.1/"
   xmlns:cc="http://creativecommons.org/ns#"
   xmlns:rdf="http://www.w3.org/1999/02/22-rdf-syntax-ns#"
   xmlns:svg="http://www.w3.org/2000/svg"
   xmlns="http://www.w3.org/2000/svg"
   xmlns:xlink="http://www.w3.org/1999/xlink"
   xmlns:sodipodi="http://sodipodi.sourceforge.net/DTD/sodipodi-0.dtd"
   xmlns:inkscape="http://www.inkscape.org/namespaces/inkscape"
   version="1.1"
   id="svg928"
   width="16"
   height="16"
   viewBox="0 0 16 16"
   sodipodi:docname="favicon.svg"
   inkscape:version="0.92.4 5da689c313, 2019-01-14"
   inkscape:export-filename="/home/sam/Documents/repos/synesthesia/site/images/favicon.png"
   inkscape:export-xdpi="288"
   inkscape:export-ydpi="288">
  <metadata
     id="metadata934">
    <rdf:RDF>
      <cc:Work
         rdf:about="">
        <dc:format>image/svg+xml</dc:format>
        <dc:type
           rdf:resource="http://purl.org/dc/dcmitype/StillImage" />
        <dc:title></dc:title>
      </cc:Work>
    </rdf:RDF>
  </metadata>
  <defs
     id="defs932">
    <linearGradient
       id="linearGradient1208"
       inkscape:collect="always">
      <stop
         id="stop1204"
         offset="0"
         style="stop-color:#ff07bf;stop-opacity:1" />
      <stop
         id="stop1206"
         offset="1"
         style="stop-color:#d807ff;stop-opacity:0" />
    </linearGradient>
    <linearGradient
       inkscape:collect="always"
       id="linearGradient1113">
      <stop
         style="stop-color:#d807ff;stop-opacity:1"
         offset="0"
         id="stop1109" />
      <stop
         style="stop-color:#d807ff;stop-opacity:0"
         offset="1"
         id="stop1111" />
    </linearGradient>
    <linearGradient
       inkscape:collect="always"
       xlink:href="#linearGradient1113"
       id="linearGradient1115"
       x1="145.18282"
       y1="278.25052"
       x2="406.66388"
       y2="82.139702"
       gradientUnits="userSpaceOnUse" />
    <linearGradient
       inkscape:collect="always"
       xlink:href="#linearGradient1208"
       id="linearGradient1178"
       gradientUnits="userSpaceOnUse"
       x1="145.18282"
       y1="278.25052"
       x2="406.66388"
       y2="82.139702" />
    <filter
       style="color-interpolation-filters:sRGB"
       inkscape:label="Blur"
       id="filter1650">
      <feGaussianBlur
         stdDeviation="15 15"
         result="blur"
         id="feGaussianBlur1648" />
    </filter>
    <filter
       style="color-interpolation-filters:sRGB"
       inkscape:label="Blur"
       id="filter1646">
      <feGaussianBlur
         stdDeviation="15 15"
         result="blur"
         id="feGaussianBlur1644" />
    </filter>
    <filter
       style="color-interpolation-filters:sRGB"
       inkscape:label="Blur"
       id="filter1642">
      <feGaussianBlur
         stdDeviation="10 10"
         result="blur"
         id="feGaussianBlur1640" />
    </filter>
    <filter
       style="color-interpolation-filters:sRGB"
       inkscape:label="Blur"
       id="filter1626">
      <feGaussianBlur
         stdDeviation="5 5"
         result="blur"
         id="feGaussianBlur1624" />
    </filter>
    <filter
       style="color-interpolation-filters:sRGB"
       inkscape:label="Blur"
       id="filter1622">
      <feGaussianBlur
         stdDeviation="5 5"
         result="blur"
         id="feGaussianBlur1620" />
    </filter>
    <filter
       style="color-interpolation-filters:sRGB"
       inkscape:label="Blur"
       id="filter1606">
      <feGaussianBlur
         stdDeviation="10 10"
         result="blur"
         id="feGaussianBlur1604" />
    </filter>
    <filter
       style="color-interpolation-filters:sRGB"
       inkscape:label="Blur"
       id="filter3283">
      <feGaussianBlur
         stdDeviation="15 15"
         result="blur"
         id="feGaussianBlur3281" />
    </filter>
    <linearGradient
       gradientTransform="matrix(0.03762011,0,0,0.03762011,-0.765455,-0.765505)"
       inkscape:collect="always"
       xlink:href="#linearGradient2785"
       id="linearGradient1804-2"
       x1="84.145706"
       y1="331.64972"
       x2="391.03006"
       y2="182.45018"
       gradientUnits="userSpaceOnUse" />
    <linearGradient
       inkscape:collect="always"
       id="linearGradient2785">
      <stop
         style="stop-color:#5c03ab;stop-opacity:1"
         offset="0"
         id="stop2781" />
      <stop
         style="stop-color:#a003b3;stop-opacity:1"
         offset="1"
         id="stop2783" />
    </linearGradient>
    <linearGradient
       gradientTransform="matrix(0.03762011,0,0,0.03762011,-0.765455,-0.765505)"
       inkscape:collect="always"
       xlink:href="#linearGradient2785"
       id="linearGradient1804-2-6"
       x1="84.145706"
       y1="331.64972"
       x2="391.03006"
       y2="182.45018"
       gradientUnits="userSpaceOnUse" />
  </defs>
  <sodipodi:namedview
     pagecolor="#ffffff"
     bordercolor="#666666"
     borderopacity="1"
     objecttolerance="10"
     gridtolerance="10"
     guidetolerance="10"
     inkscape:pageopacity="0"
     inkscape:pageshadow="2"
     inkscape:window-width="2556"
     inkscape:window-height="1310"
     id="namedview930"
     showgrid="false"
     inkscape:zoom="22.627417"
     inkscape:cx="2.7623512"
     inkscape:cy="-4.9436268"
     inkscape:window-x="0"
     inkscape:window-y="58"
     inkscape:window-maximized="0"
     inkscape:current-layer="svg928"
     inkscape:lockguides="true"
     showguides="false"
     inkscape:guide-bbox="true"
     fit-margin-top="0"
     fit-margin-left="0"
     fit-margin-right="0"
     fit-margin-bottom="0">
    <sodipodi:guide
       position="319.875,258"
       orientation="0,1"
       id="guide1129"
       inkscape:locked="true" />
    <sodipodi:guide
       position="304.5,262.75"
       orientation="1,0"
       id="guide1131"
       inkscape:locked="true" />
  </sodipodi:namedview>
  <g
     id="g4824"
     transform="matrix(0.911124,0,0,0.911124,0.49936459,0.98122254)">
    <path
       style="fill:url(#linearGradient1804-2-6);fill-opacity:1;stroke:#ffffff;stroke-width:1.09620059;stroke-miterlimit:4;stroke-dasharray:none;stroke-opacity:1"
       d="m 3.671585,1.374665 v 2.27902 l -1.99526,-1.59804 7e-5,6.62613 A 1.2603845,1.2603845 0 0 0 1.260295,8.609575 1.2603845,1.2603845 0 0 0 2.500025e-5,9.869995 1.2603845,1.2603845 0 0 0 1.260295,11.130335 1.2603845,1.2603845 0 0 0 2.520715,9.869995 v -6.12055 l 1.15087,0.86578 v 6.4348 a 1.8403747,1.8403747 0 0 0 -0.6075,-0.10536 1.8403747,1.8403747 0 0 0 -1.84038,1.84037 1.8403747,1.8403747 0 0 0 1.84038,1.8403 1.8403747,1.8403747 0 0 0 1.84044,-1.8403 v -8.93713 l 2.037,1.53266 v -1.38681 z m 4.51213,2.13266 c -0.0112,-1.9e-4 -0.0204,1e-5 -0.0285,5.9e-4 -0.0388,0.003 -0.0529,0.0128 -0.15475,0.0119 -0.25772,-0.002 -0.46673,0.0285 -0.70148,0.0841 l 0.17025,0.13645 v 1.90473 c 0.0899,-0.0198 0.1808,-0.0369 0.27333,-0.0491 l 0.34821,0.4053 0.30941,-0.42529 c 0.12023,0.008 0.23856,0.0234 0.35474,0.0445 l 0.2014,0.48208 0.41831,-0.30346 c 0.11386,0.0457 0.22479,0.0969 0.33174,0.15474 l 0.042,0.51258 0.4834,-0.1568 c 0.0963,0.08 0.18713,0.16613 0.27341,0.25673 l -0.11624,0.49089 0.50089,3.8e-4 c 0.068,0.10676 0.13063,0.21732 0.1859,0.33219 l -0.25989,0.42727 0.47268,0.154 c 0.032,0.12311 0.0565,0.24923 0.0739,0.37767 l -0.37568,0.32294 0.4014,0.29192 c -0.007,0.12954 -0.0219,0.25681 -0.0436,0.38178 l -0.45908,0.19185 0.29478,0.40625 c -0.0453,0.11837 -0.0971,0.23333 -0.1554,0.34446 l -0.50331,0.0411 0.15746,0.48531 c -0.0775,0.096 -0.16052,0.18731 -0.24843,0.27371 l -0.49979,-0.11845 -3e-4,0.52029 c -0.10024,0.0653 -0.20431,0.12511 -0.31191,0.17914 l -0.44777,-0.27253 -0.16444,0.50508 c -0.11153,0.0297 -0.22529,0.0542 -0.3413,0.0719 l -0.34872,-0.40588 -0.31918,0.43858 c -0.11355,-0.006 -0.22541,-0.018 -0.33549,-0.0354 l -0.21088,-0.50464 -0.44946,0.32616 c -0.10169,-0.0395 -0.20066,-0.084 -0.29699,-0.13314 l -0.0456,-0.55681 -0.5388,0.17466 c -0.0812,-0.0669 -0.15868,-0.13784 -0.23285,-0.21228 l 0.13101,-0.5532 -0.57209,-5.2e-4 c -0.005,-0.008 -0.009,-0.0155 -0.0139,-0.0231 v 1.08686 c 0.46437,0.45623 1.04132,0.79839 1.68526,0.97894 -0.56734,-0.0274 -1.09757,-0.185 -1.68526,-0.35424 v 0.5225 c 1.38891,0.36111 2.63594,0.55439 4.17172,0.30551 2.23128,-0.36157 3.04927,-1.28505 4.1493,-1.9874 1.10004,-0.70234 1.70261,-1.92115 1.79974,-2.06947 0.26199,0.0154 0.44711,0.002 0.44711,0.002 0,0 -1.7214,-2.41443 -3.03753,-3.40072 -1.31613,-0.98629 -2.73365,-1.74039 -3.88802,-1.93303 -0.6313,-0.10535 -0.8121,-0.13044 -0.89076,-0.13196 z m -2.75155,1.39797 v 0.44115 c 0.12539,-0.0186 0.2813,-0.0336 0.50588,-0.0606 z m 0.71617,0.53873 c -0.26018,0.15796 -0.50022,0.3458 -0.71617,0.55806 v 1.27474 l 0.45342,-0.0371 -0.1734,-0.53521 c 0.0693,-0.0818 0.14262,-0.15997 0.21969,-0.23439 l 0.54446,0.12903 3.1e-4,-0.55284 c 0.088,-0.0544 0.17899,-0.10437 0.27237,-0.15026 z m 4.71494,0.5139 c 0.42719,0.29606 0.79902,0.65387 1.41846,1.08348 0.84287,0.58457 1.75264,1.50257 2.25185,1.714 0.49921,0.21143 0.71508,0.19647 1.00237,0.21455 -0.14303,0.14468 -0.99125,1.10659 -2.21452,1.79805 -1.22327,0.69146 -2.39936,1.4758 -3.85275,1.70885 1.51974,-0.53664 2.61246,-1.98702 2.61246,-3.68773 0,-1.11297 -0.46859,-2.1183 -1.21787,-2.8312 z m -2.69234,1.69973 c -0.6249,0 -1.13148,0.50658 -1.13147,1.13147 4e-5,0.62484 0.50663,1.13126 1.13147,1.13125 0.62484,10e-6 1.1314,-0.50641 1.13147,-1.13125 10e-6,-0.62489 -0.50657,-1.13147 -1.13147,-1.13147 z m -2.73877,0.25063 v 0.16077 l 0.0896,-0.0374 z m 0,1.79166 v 0.31338 l 0.15922,-0.26158 z"
       id="path1112-9-3"
       inkscape:connector-curvature="0" />
    <path
       style="fill:url(#linearGradient1804-2);fill-opacity:1;stroke:none;stroke-width:1.09620059;stroke-miterlimit:4;stroke-dasharray:none;stroke-opacity:1"
       d="m 3.671585,1.374665 v 2.27902 l -1.99526,-1.59804 7e-5,6.62613 A 1.2603845,1.2603845 0 0 0 1.260295,8.609575 1.2603845,1.2603845 0 0 0 2.500025e-5,9.869995 1.2603845,1.2603845 0 0 0 1.260295,11.130335 1.2603845,1.2603845 0 0 0 2.520715,9.869995 v -6.12055 l 1.15087,0.86578 v 6.4348 a 1.8403747,1.8403747 0 0 0 -0.6075,-0.10536 1.8403747,1.8403747 0 0 0 -1.84038,1.84037 1.8403747,1.8403747 0 0 0 1.84038,1.8403 1.8403747,1.8403747 0 0 0 1.84044,-1.8403 v -8.93713 l 2.037,1.53266 v -1.38681 z m 4.51213,2.13266 c -0.0112,-1.9e-4 -0.0204,1e-5 -0.0285,5.9e-4 -0.0388,0.003 -0.0529,0.0128 -0.15475,0.0119 -0.25772,-0.002 -0.46673,0.0285 -0.70148,0.0841 l 0.17025,0.13645 v 1.90473 c 0.0899,-0.0198 0.1808,-0.0369 0.27333,-0.0491 l 0.34821,0.4053 0.30941,-0.42529 c 0.12023,0.008 0.23856,0.0234 0.35474,0.0445 l 0.2014,0.48208 0.41831,-0.30346 c 0.11386,0.0457 0.22479,0.0969 0.33174,0.15474 l 0.042,0.51258 0.4834,-0.1568 c 0.0963,0.08 0.18713,0.16613 0.27341,0.25673 l -0.11624,0.49089 0.50089,3.8e-4 c 0.068,0.10676 0.13063,0.21732 0.1859,0.33219 l -0.25989,0.42727 0.47268,0.154 c 0.032,0.12311 0.0565,0.24923 0.0739,0.37767 l -0.37568,0.32294 0.4014,0.29192 c -0.007,0.12954 -0.0219,0.25681 -0.0436,0.38178 l -0.45908,0.19185 0.29478,0.40625 c -0.0453,0.11837 -0.0971,0.23333 -0.1554,0.34446 l -0.50331,0.0411 0.15746,0.48531 c -0.0775,0.096 -0.16052,0.18731 -0.24843,0.27371 l -0.49979,-0.11845 -3e-4,0.52029 c -0.10024,0.0653 -0.20431,0.12511 -0.31191,0.17914 l -0.44777,-0.27253 -0.16444,0.50508 c -0.11153,0.0297 -0.22529,0.0542 -0.3413,0.0719 l -0.34872,-0.40588 -0.31918,0.43858 c -0.11355,-0.006 -0.22541,-0.018 -0.33549,-0.0354 l -0.21088,-0.50464 -0.44946,0.32616 c -0.10169,-0.0395 -0.20066,-0.084 -0.29699,-0.13314 l -0.0456,-0.55681 -0.5388,0.17466 c -0.0812,-0.0669 -0.15868,-0.13784 -0.23285,-0.21228 l 0.13101,-0.5532 -0.57209,-5.2e-4 c -0.005,-0.008 -0.009,-0.0155 -0.0139,-0.0231 v 1.08686 c 0.46437,0.45623 1.04132,0.79839 1.68526,0.97894 -0.56734,-0.0274 -1.09757,-0.185 -1.68526,-0.35424 v 0.5225 c 1.38891,0.36111 2.63594,0.55439 4.17172,0.30551 2.23128,-0.36157 3.04927,-1.28505 4.1493,-1.9874 1.10004,-0.70234 1.70261,-1.92115 1.79974,-2.06947 0.26199,0.0154 0.44711,0.002 0.44711,0.002 0,0 -1.7214,-2.41443 -3.03753,-3.40072 -1.31613,-0.98629 -2.73365,-1.74039 -3.88802,-1.93303 -0.6313,-0.10535 -0.8121,-0.13044 -0.89076,-0.13196 z m -2.75155,1.39797 v 0.44115 c 0.12539,-0.0186 0.2813,-0.0336 0.50588,-0.0606 z m 0.71617,0.53873 c -0.26018,0.15796 -0.50022,0.3458 -0.71617,0.55806 v 1.27474 l 0.45342,-0.0371 -0.1734,-0.53521 c 0.0693,-0.0818 0.14262,-0.15997 0.21969,-0.23439 l 0.54446,0.12903 3.1e-4,-0.55284 c 0.088,-0.0544 0.17899,-0.10437 0.27237,-0.15026 z m 4.71494,0.5139 c 0.42719,0.29606 0.79902,0.65387 1.41846,1.08348 0.84287,0.58457 1.75264,1.50257 2.25185,1.714 0.49921,0.21143 0.71508,0.19647 1.00237,0.21455 -0.14303,0.14468 -0.99125,1.10659 -2.21452,1.79805 -1.22327,0.69146 -2.39936,1.4758 -3.85275,1.70885 1.51974,-0.53664 2.61246,-1.98702 2.61246,-3.68773 0,-1.11297 -0.46859,-2.1183 -1.21787,-2.8312 z m -2.69234,1.69973 c -0.6249,0 -1.13148,0.50658 -1.13147,1.13147 4e-5,0.62484 0.50663,1.13126 1.13147,1.13125 0.62484,10e-6 1.1314,-0.50641 1.13147,-1.13125 10e-6,-0.62489 -0.50657,-1.13147 -1.13147,-1.13147 z m -2.73877,0.25063 v 0.16077 l 0.0896,-0.0374 z m 0,1.79166 v 0.31338 l 0.15922,-0.26158 z"
       id="path1112-9"
       inkscape:connector-curvature="0" />
  </g>
</svg>
