<?xml version="1.0" encoding="UTF-8" standalone="no"?>
<svg
   xmlns:dc="http://purl.org/dc/elements/1.1/"
   xmlns:cc="http://creativecommons.org/ns#"
   xmlns:rdf="http://www.w3.org/1999/02/22-rdf-syntax-ns#"
   xmlns:svg="http://www.w3.org/2000/svg"
   xmlns="http://www.w3.org/2000/svg"
   xmlns:xlink="http://www.w3.org/1999/xlink"
   viewBox="0 0 40 50"
   height="50"
   width="40"
   id="svg928"
   version="1.1">
  <metadata
     id="metadata934">
    <rdf:RDF>
      <cc:Work
         rdf:about="">
        <dc:format>image/svg+xml</dc:format>
        <dc:type
           rdf:resource="http://purl.org/dc/dcmitype/StillImage" />
        <dc:title></dc:title>
      </cc:Work>
    </rdf:RDF>
  </metadata>
  <defs
     id="defs932">
    <linearGradient
       id="linearGradient1208">
      <stop
         style="stop-color:#ff07bf;stop-opacity:1"
         offset="0"
         id="stop1204" />
      <stop
         style="stop-color:#d807ff;stop-opacity:0"
         offset="1"
         id="stop1206" />
    </linearGradient>
    <linearGradient
       id="linearGradient1113">
      <stop
         id="stop1109"
         offset="0"
         style="stop-color:#d807ff;stop-opacity:1" />
      <stop
         id="stop1111"
         offset="1"
         style="stop-color:#d807ff;stop-opacity:0" />
    </linearGradient>
    <linearGradient
       gradientUnits="userSpaceOnUse"
       y2="82.139702"
       x2="406.66388"
       y1="278.25052"
       x1="145.18282"
       id="linearGradient1115"
       xlink:href="#linearGradient1113" />
    <linearGradient
       y2="82.139702"
       x2="406.66388"
       y1="278.25052"
       x1="145.18282"
       gradientUnits="userSpaceOnUse"
       id="linearGradient1178"
       xlink:href="#linearGradient1208" />
    <filter
       id="filter1650"
       style="color-interpolation-filters:sRGB">
      <feGaussianBlur
         id="feGaussianBlur1648"
         result="blur"
         stdDeviation="15 15" />
    </filter>
    <filter
       id="filter1646"
       style="color-interpolation-filters:sRGB">
      <feGaussianBlur
         id="feGaussianBlur1644"
         result="blur"
         stdDeviation="15 15" />
    </filter>
    <filter
       id="filter1642"
       style="color-interpolation-filters:sRGB">
      <feGaussianBlur
         id="feGaussianBlur1640"
         result="blur"
         stdDeviation="10 10" />
    </filter>
    <filter
       id="filter1626"
       style="color-interpolation-filters:sRGB">
      <feGaussianBlur
         id="feGaussianBlur1624"
         result="blur"
         stdDeviation="5 5" />
    </filter>
    <filter
       id="filter1622"
       style="color-interpolation-filters:sRGB">
      <feGaussianBlur
         id="feGaussianBlur1620"
         result="blur"
         stdDeviation="5 5" />
    </filter>
    <filter
       id="filter1606"
       style="color-interpolation-filters:sRGB">
      <feGaussianBlur
         id="feGaussianBlur1604"
         result="blur"
         stdDeviation="10 10" />
    </filter>
    <filter
       id="filter3283"
       style="color-interpolation-filters:sRGB">
      <feGaussianBlur
         id="feGaussianBlur3281"
         result="blur"
         stdDeviation="15 15" />
    </filter>
  </defs>
  <path
     style="fill:#ffffff;fill-opacity:1;stroke:none;stroke-width:2.7405014;stroke-miterlimit:4;stroke-dasharray:none;stroke-opacity:1"
     d="m 9.178898,8.43668 v 5.69758 L 4.190743,10.13914 4.190932,26.70448 A 3.1509614,3.1509614 0 0 0 3.150684,26.52391 3.1509614,3.1509614 0 0 0 0,29.67496 3.1509614,3.1509614 0 0 0 3.150684,32.82583 3.1509614,3.1509614 0 0 0 6.301736,29.67496 V 14.37361 l 2.877167,2.16444 v 16.087 a 4.6009368,4.6009368 0 0 0 -1.518765,-0.26341 4.6009368,4.6009368 0 0 0 -4.600932,4.60093 4.6009368,4.6009368 0 0 0 4.600932,4.60075 4.6009368,4.6009368 0 0 0 4.601116,-4.60075 V 14.61975 l 5.092491,3.83163 v -3.467 z m 11.280338,5.33166 c -0.02809,-4.7e-4 -0.05107,2e-5 -0.07127,10e-4 -0.09699,0.007 -0.132216,0.0321 -0.386855,0.0298 -0.64432,-0.006 -1.166843,0.0713 -1.753708,0.21032 l 0.425614,0.34112 v 4.76185 c 0.224639,-0.0496 0.452002,-0.0923 0.683335,-0.12289 l 0.870516,1.01324 0.773527,-1.06321 c 0.300587,0.021 0.596406,0.0584 0.886865,0.11132 l 0.503499,1.2052 1.045758,-0.75865 c 0.284671,0.11428 0.561995,0.24214 0.829369,0.38686 l 0.104889,1.28143 1.208509,-0.39199 c 0.240701,0.2001 0.467822,0.41532 0.683517,0.64182 l -0.2906,1.22724 1.252227,9.4e-4 c 0.169971,0.26689 0.326586,0.54329 0.464741,0.83047 l -0.649718,1.06817 1.18169,0.38502 c 0.08015,0.30777 0.141149,0.62306 0.184794,0.94418 l -0.939217,0.80732 1.00351,0.72981 c -0.01718,0.32385 -0.05483,0.64203 -0.10893,0.95446 l -1.147707,0.47962 0.736972,1.01564 c -0.113155,0.29592 -0.242691,0.58332 -0.388508,0.86114 l -1.25829,0.10287 0.393652,1.21329 c -0.193845,0.23996 -0.4013,0.46827 -0.621063,0.68425 l -1.249472,-0.29611 -7.53e-4,1.30072 c -0.250601,0.16327 -0.510772,0.31278 -0.779771,0.44784 l -1.11942,-0.68131 -0.411102,1.2627 c -0.278836,0.0743 -0.563233,0.13546 -0.853249,0.17983 l -0.871802,-1.01471 -0.797957,1.09645 c -0.283877,-0.015 -0.563522,-0.0451 -0.838738,-0.0885 L 18.626894,33.6653 17.50325,34.48071 c -0.254216,-0.0987 -0.501641,-0.20991 -0.742482,-0.33285 l -0.113889,-1.39202 -1.347013,0.43664 c -0.202886,-0.16727 -0.396684,-0.34461 -0.58212,-0.53069 l 0.327523,-1.38302 -1.430225,-0.001 c -0.01204,-0.019 -0.02284,-0.0387 -0.03472,-0.0579 v 2.71717 c 1.160926,1.14056 2.603299,1.99596 4.213158,2.44733 -1.418356,-0.0686 -2.743938,-0.4625 -4.213158,-0.88558 v 1.30623 c 3.472282,0.90279 6.589849,1.38597 10.429293,0.7638 5.578199,-0.90394 7.623183,-3.21265 10.373267,-4.9685 2.750086,-1.75586 4.25651,-4.80289 4.499351,-5.17369 0.654973,0.0384 1.117765,0.006 1.117765,0.006 0,0 -4.303501,-6.03609 -7.593824,-8.50181 -3.290322,-2.46573 -6.834126,-4.35097 -9.720059,-4.83257 -1.578245,-0.26338 -2.030238,-0.32609 -2.226898,-0.32991 z m -6.878895,3.49492 v 1.10289 c 0.313494,-0.0465 0.703247,-0.0841 1.264718,-0.15154 z m 1.790445,1.34683 c -0.650457,0.3949 -1.25056,0.86451 -1.790445,1.39514 v 3.18688 l 1.133562,-0.0928 -0.433512,-1.33801 c 0.173345,-0.20441 0.356557,-0.39993 0.549238,-0.58598 l 1.361158,0.32256 7.52e-4,-1.38209 c 0.219994,-0.13589 0.447498,-0.26093 0.680946,-0.37565 z m 11.787328,1.28475 c 1.067996,0.74015 1.997553,1.63469 3.546172,2.70872 2.107174,1.46141 4.381583,3.75641 5.629608,4.28498 1.248023,0.52857 1.787717,0.49119 2.505925,0.53638 -0.357578,0.3617 -2.478109,2.76648 -5.536292,4.49512 -3.058183,1.72865 -5.998398,3.68951 -9.631886,4.27213 3.799351,-1.3416 6.531167,-4.96754 6.531167,-9.21932 0,-2.78242 -1.171495,-5.29576 -3.044694,-7.07801 z m -6.73084,4.24934 c -1.562242,-2e-5 -2.828689,1.26643 -2.828672,2.82867 9.4e-5,1.5621 1.26657,2.82814 2.828672,2.82812 1.562102,2e-5 2.82849,-1.26602 2.828672,-2.82812 1.7e-5,-1.56224 -1.26643,-2.82869 -2.828672,-2.82867 z m -6.846933,0.62657 v 0.40192 l 0.224104,-0.0935 z m 0,4.47915 v 0.78344 l 0.39806,-0.65394 z"
     id="path1112-9" />
</svg>
