<?xml version="1.0" encoding="UTF-8" standalone="no"?>
<!-- Created with Inkscape (http://www.inkscape.org/) -->

<svg
   xmlns:dc="http://purl.org/dc/elements/1.1/"
   xmlns:cc="http://creativecommons.org/ns#"
   xmlns:rdf="http://www.w3.org/1999/02/22-rdf-syntax-ns#"
   xmlns:svg="http://www.w3.org/2000/svg"
   xmlns="http://www.w3.org/2000/svg"
   xmlns:xlink="http://www.w3.org/1999/xlink"
   xmlns:sodipodi="http://sodipodi.sourceforge.net/DTD/sodipodi-0.dtd"
   xmlns:inkscape="http://www.inkscape.org/namespaces/inkscape"
   version="1.1"
   id="svg928"
   width="1500"
   height="500"
   viewBox="0 0 1500 500"
   sodipodi:docname="twitter_header.svg"
   inkscape:version="0.92.4 5da689c313, 2019-01-14"
   inkscape:export-filename="/home/sam/Documents/repos/synesthesia-project/synesthesia/branding/logo/twitter_header.png"
   inkscape:export-xdpi="96"
   inkscape:export-ydpi="96">
  <metadata
     id="metadata934">
    <rdf:RDF>
      <cc:Work
         rdf:about="">
        <dc:format>image/svg+xml</dc:format>
        <dc:type
           rdf:resource="http://purl.org/dc/dcmitype/StillImage" />
        <dc:title />
      </cc:Work>
    </rdf:RDF>
  </metadata>
  <defs
     id="defs932">
    <linearGradient
       id="linearGradient1208"
       inkscape:collect="always">
      <stop
         id="stop1204"
         offset="0"
         style="stop-color:#ff07bf;stop-opacity:1" />
      <stop
         id="stop1206"
         offset="1"
         style="stop-color:#d807ff;stop-opacity:0" />
    </linearGradient>
    <linearGradient
       inkscape:collect="always"
       id="linearGradient1113">
      <stop
         style="stop-color:#d807ff;stop-opacity:1"
         offset="0"
         id="stop1109" />
      <stop
         style="stop-color:#d807ff;stop-opacity:0"
         offset="1"
         id="stop1111" />
    </linearGradient>
    <linearGradient
       inkscape:collect="always"
       xlink:href="#linearGradient1113"
       id="linearGradient1115"
       x1="145.18282"
       y1="278.25052"
       x2="406.66388"
       y2="82.139702"
       gradientUnits="userSpaceOnUse" />
    <linearGradient
       inkscape:collect="always"
       xlink:href="#linearGradient1208"
       id="linearGradient1178"
       gradientUnits="userSpaceOnUse"
       x1="145.18282"
       y1="278.25052"
       x2="406.66388"
       y2="82.139702" />
    <filter
       style="color-interpolation-filters:sRGB;"
       inkscape:label="Blur"
       id="filter1606">
      <feGaussianBlur
         stdDeviation="10 10"
         result="blur"
         id="feGaussianBlur1604" />
    </filter>
    <filter
       style="color-interpolation-filters:sRGB;"
       inkscape:label="Blur"
       id="filter1622">
      <feGaussianBlur
         stdDeviation="5 5"
         result="blur"
         id="feGaussianBlur1620" />
    </filter>
    <filter
       style="color-interpolation-filters:sRGB;"
       inkscape:label="Blur"
       id="filter1626">
      <feGaussianBlur
         stdDeviation="5 5"
         result="blur"
         id="feGaussianBlur1624" />
    </filter>
    <filter
       style="color-interpolation-filters:sRGB;"
       inkscape:label="Blur"
       id="filter1642">
      <feGaussianBlur
         stdDeviation="10 10"
         result="blur"
         id="feGaussianBlur1640" />
    </filter>
    <filter
       style="color-interpolation-filters:sRGB;"
       inkscape:label="Blur"
       id="filter1646">
      <feGaussianBlur
         stdDeviation="15 15"
         result="blur"
         id="feGaussianBlur1644" />
    </filter>
    <filter
       style="color-interpolation-filters:sRGB;"
       inkscape:label="Blur"
       id="filter1650">
      <feGaussianBlur
         stdDeviation="15 15"
         result="blur"
         id="feGaussianBlur1648" />
    </filter>
  </defs>
  <sodipodi:namedview
     pagecolor="#ffffff"
     bordercolor="#666666"
     borderopacity="1"
     objecttolerance="10"
     gridtolerance="10"
     guidetolerance="10"
     inkscape:pageopacity="0"
     inkscape:pageshadow="2"
     inkscape:window-width="1109"
     inkscape:window-height="1401"
     id="namedview930"
     showgrid="false"
     inkscape:zoom="0.3288957"
     inkscape:cx="734.49933"
     inkscape:cy="-105.66068"
     inkscape:window-x="1447"
     inkscape:window-y="37"
     inkscape:window-maximized="0"
     inkscape:current-layer="svg928" />
  <rect
     style="opacity:1;vector-effect:none;fill:#590076;fill-opacity:1;stroke:none;stroke-width:125.55315399;stroke-linecap:butt;stroke-linejoin:round;stroke-miterlimit:4;stroke-dasharray:none;stroke-dashoffset:0;stroke-opacity:0.78431373"
     id="rect1248"
     width="1500"
     height="500"
     x="-6.3046491e-07"
     y="-1.1444092e-05" />
  <g
     id="g1581"
     style="filter:url(#filter1650)">
    <circle
       transform="scale(1,-1)"
       r="50.672596"
       cy="-21.490005"
       cx="1401.6602"
       id="path864-5-60-6-2-6"
       style="opacity:1;vector-effect:none;fill:#a709f6;fill-opacity:0.352657;stroke:none;stroke-width:0.86486173;stroke-linecap:butt;stroke-linejoin:round;stroke-miterlimit:4;stroke-dasharray:none;stroke-dashoffset:0;stroke-opacity:1" />
    <circle
       transform="scale(1,-1)"
       r="50.672596"
       cy="-124.86627"
       cx="746.43726"
       id="path864-5-60-6-2-6-1"
       style="opacity:1;vector-effect:none;fill:#6209f6;fill-opacity:0.19806764;stroke:none;stroke-width:0.86486173;stroke-linecap:butt;stroke-linejoin:round;stroke-miterlimit:4;stroke-dasharray:none;stroke-dashoffset:0;stroke-opacity:1" />
    <circle
       transform="scale(1,-1)"
       r="50.672596"
       cy="-67.097198"
       cx="430.2276"
       id="path864-5-60-6-2-6-1-8"
       style="opacity:1;vector-effect:none;fill:#c909f6;fill-opacity:0.19806764;stroke:none;stroke-width:0.86486173;stroke-linecap:butt;stroke-linejoin:round;stroke-miterlimit:4;stroke-dasharray:none;stroke-dashoffset:0;stroke-opacity:1" />
    <circle
       transform="scale(-1,1)"
       r="50.672596"
       cy="295.34525"
       cx="-242.47801"
       id="path864-5-60-2"
       style="opacity:1;vector-effect:none;fill:#ae7ffa;fill-opacity:0.19806764;stroke:none;stroke-width:0.86486173;stroke-linecap:butt;stroke-linejoin:round;stroke-miterlimit:4;stroke-dasharray:none;stroke-dashoffset:0;stroke-opacity:1" />
    <circle
       transform="scale(-1,1)"
       r="50.672596"
       cy="433.68698"
       cx="-408.18402"
       id="path864-5-60-6-2-4"
       style="opacity:1;vector-effect:none;fill:#6209f6;fill-opacity:0.19806764;stroke:none;stroke-width:0.86486173;stroke-linecap:butt;stroke-linejoin:round;stroke-miterlimit:4;stroke-dasharray:none;stroke-dashoffset:0;stroke-opacity:1" />
    <circle
       transform="scale(-1,1)"
       r="50.672596"
       cy="365.27621"
       cx="-1399.3798"
       id="path864-5-60-6-2-6-1-8-4"
       style="opacity:1;vector-effect:none;fill:#c909f6;fill-opacity:0.19806764;stroke:none;stroke-width:0.86486173;stroke-linecap:butt;stroke-linejoin:round;stroke-miterlimit:4;stroke-dasharray:none;stroke-dashoffset:0;stroke-opacity:1" />
    <circle
       transform="scale(-1,1)"
       r="50.672596"
       cy="79.471352"
       cx="-1238.2345"
       id="path864-5-60-6-2-6-1-8-7-3"
       style="opacity:1;vector-effect:none;fill:#ae7ffa;fill-opacity:0.44444448;stroke:none;stroke-width:0.86486173;stroke-linecap:butt;stroke-linejoin:round;stroke-miterlimit:4;stroke-dasharray:none;stroke-dashoffset:0;stroke-opacity:1" />
    <circle
       transform="scale(-1,1)"
       r="50.672596"
       cy="448.88934"
       cx="-1143.9796"
       id="path864-5-60-6-2-6-1-8-2-7"
       style="opacity:1;vector-effect:none;fill:#6209f6;fill-opacity:0.41545895;stroke:none;stroke-width:0.86486173;stroke-linecap:butt;stroke-linejoin:round;stroke-miterlimit:4;stroke-dasharray:none;stroke-dashoffset:0;stroke-opacity:1" />
  </g>
  <g
     id="g1594"
     style="filter:url(#filter1646)">
    <circle
       transform="scale(1,-1)"
       r="50.672596"
       cy="-286.0116"
       cx="921.26477"
       id="path864-5-60"
       style="opacity:1;vector-effect:none;fill:#ae7ffa;fill-opacity:0.19806764;stroke:none;stroke-width:0.86486173;stroke-linecap:butt;stroke-linejoin:round;stroke-miterlimit:4;stroke-dasharray:none;stroke-dashoffset:0;stroke-opacity:1" />
    <circle
       transform="scale(1,-1)"
       r="50.672596"
       cy="-47.33408"
       cx="1343.8911"
       id="path864-5-60-6-2"
       style="opacity:1;vector-effect:none;fill:#6209f6;fill-opacity:0.19806764;stroke:none;stroke-width:0.86486173;stroke-linecap:butt;stroke-linejoin:round;stroke-miterlimit:4;stroke-dasharray:none;stroke-dashoffset:0;stroke-opacity:1" />
    <circle
       transform="scale(1,-1)"
       r="50.672596"
       cy="16.515928"
       cx="685.62775"
       id="path864-5-60-6-2-6-1-8-2"
       style="opacity:1;vector-effect:none;fill:#6209f6;fill-opacity:0.41545895;stroke:none;stroke-width:0.86486173;stroke-linecap:butt;stroke-linejoin:round;stroke-miterlimit:4;stroke-dasharray:none;stroke-dashoffset:0;stroke-opacity:1" />
    <circle
       transform="scale(1,-1)"
       r="50.672596"
       cy="16.515928"
       cx="962.31122"
       id="path864-5-60-6-2-6-1-8-2-0"
       style="opacity:1;vector-effect:none;fill:#6209f6;fill-opacity:0.44444448;stroke:none;stroke-width:0.86486173;stroke-linecap:butt;stroke-linejoin:round;stroke-miterlimit:4;stroke-dasharray:none;stroke-dashoffset:0;stroke-opacity:1" />
    <circle
       transform="scale(1,-1)"
       r="50.672596"
       cy="13.475483"
       cx="1033.7625"
       id="path864-5-60-6-2-6-1-8-2-0-2"
       style="opacity:1;vector-effect:none;fill:#6209f6;fill-opacity:0.19806764;stroke:none;stroke-width:0.86486173;stroke-linecap:butt;stroke-linejoin:round;stroke-miterlimit:4;stroke-dasharray:none;stroke-dashoffset:0;stroke-opacity:1" />
    <circle
       transform="scale(-1,1)"
       r="71.95594"
       cy="62.748711"
       cx="-1543.8025"
       id="path864-5-7-6"
       style="opacity:1;vector-effect:none;fill:#6209f6;fill-opacity:0.19806764;stroke:none;stroke-width:1.22811818;stroke-linecap:butt;stroke-linejoin:round;stroke-miterlimit:4;stroke-dasharray:none;stroke-dashoffset:0;stroke-opacity:1" />
    <circle
       transform="scale(-1,1)"
       r="50.672596"
       cy="246.69762"
       cx="-541.96515"
       id="path864-5-60-6-5"
       style="opacity:1;vector-effect:none;fill:#6209f6;fill-opacity:0.19806764;stroke:none;stroke-width:0.86486173;stroke-linecap:butt;stroke-linejoin:round;stroke-miterlimit:4;stroke-dasharray:none;stroke-dashoffset:0;stroke-opacity:1" />
    <circle
       transform="scale(-1,1)"
       r="50.672596"
       cy="454.97034"
       cx="-371.6983"
       id="path864-5-60-6-2-6-7"
       style="opacity:1;vector-effect:none;fill:#a709f6;fill-opacity:0.352657;stroke:none;stroke-width:0.86486173;stroke-linecap:butt;stroke-linejoin:round;stroke-miterlimit:4;stroke-dasharray:none;stroke-dashoffset:0;stroke-opacity:1" />
    <circle
       transform="scale(-1,1)"
       r="50.672596"
       cy="307.50714"
       cx="-1083.1702"
       id="path864-5-60-6-2-6-1-4"
       style="opacity:1;vector-effect:none;fill:#6209f6;fill-opacity:0.19806764;stroke:none;stroke-width:0.86486173;stroke-linecap:butt;stroke-linejoin:round;stroke-miterlimit:4;stroke-dasharray:none;stroke-dashoffset:0;stroke-opacity:1" />
    <circle
       transform="scale(-1,1)"
       r="50.672596"
       cy="497.53699"
       cx="-789.76398"
       id="path864-5-60-6-2-6-1-8-2-0-8"
       style="opacity:1;vector-effect:none;fill:#6209f6;fill-opacity:0.44444448;stroke:none;stroke-width:0.86486173;stroke-linecap:butt;stroke-linejoin:round;stroke-miterlimit:4;stroke-dasharray:none;stroke-dashoffset:0;stroke-opacity:1" />
    <circle
       transform="scale(-1,1)"
       r="50.672596"
       cy="505.13821"
       cx="-756.31873"
       id="path864-5-60-6-2-6-1-8-2-0-2-6"
       style="opacity:1;vector-effect:none;fill:#6209f6;fill-opacity:0.19806764;stroke:none;stroke-width:0.86486173;stroke-linecap:butt;stroke-linejoin:round;stroke-miterlimit:4;stroke-dasharray:none;stroke-dashoffset:0;stroke-opacity:1" />
  </g>
  <g
     id="g1571"
     style="filter:url(#filter1642)">
    <circle
       transform="scale(1,-1)"
       r="71.95594"
       cy="-343.2529"
       cx="869.6239"
       id="path864-5"
       style="opacity:1;vector-effect:none;fill:#6209f6;fill-opacity:0.19806764;stroke:none;stroke-width:1.22811818;stroke-linecap:butt;stroke-linejoin:round;stroke-miterlimit:4;stroke-dasharray:none;stroke-dashoffset:0;stroke-opacity:1" />
    <circle
       transform="scale(1,-1)"
       r="50.672596"
       cy="-234.32346"
       cx="1210.11"
       id="path864-5-60-6"
       style="opacity:1;vector-effect:none;fill:#6209f6;fill-opacity:0.19806764;stroke:none;stroke-width:0.86486173;stroke-linecap:butt;stroke-linejoin:round;stroke-miterlimit:4;stroke-dasharray:none;stroke-dashoffset:0;stroke-opacity:1" />
    <circle
       transform="scale(1,-1)"
       r="50.672596"
       cy="-401.54971"
       cx="513.8407"
       id="path864-5-60-6-2-6-1-8-7"
       style="opacity:1;vector-effect:none;fill:#ae7ffa;fill-opacity:0.44444448;stroke:none;stroke-width:0.86486173;stroke-linecap:butt;stroke-linejoin:round;stroke-miterlimit:4;stroke-dasharray:none;stroke-dashoffset:0;stroke-opacity:1" />
    <circle
       transform="scale(1,-1)"
       r="50.672596"
       cy="-94.461487"
       cx="170.26677"
       id="path864-5-60-6-2-6-1-8-7-9"
       style="opacity:1;vector-effect:none;fill:#a709f6;fill-opacity:0.352657;stroke:none;stroke-width:0.86486173;stroke-linecap:butt;stroke-linejoin:round;stroke-miterlimit:4;stroke-dasharray:none;stroke-dashoffset:0;stroke-opacity:1" />
    <circle
       transform="scale(-1,1)"
       r="71.95594"
       cy="194.017"
       cx="-880.93103"
       id="path864-5-15"
       style="opacity:1;vector-effect:none;fill:#6209f6;fill-opacity:0.19806764;stroke:none;stroke-width:1.22811818;stroke-linecap:butt;stroke-linejoin:round;stroke-miterlimit:4;stroke-dasharray:none;stroke-dashoffset:0;stroke-opacity:1" />
    <circle
       transform="scale(-1,1)"
       r="71.95594"
       cy="407.84293"
       cx="-146.70296"
       id="path864-5-0-9"
       style="opacity:1;vector-effect:none;fill:#ae7ffa;fill-opacity:0.19806764;stroke:none;stroke-width:1.22811818;stroke-linecap:butt;stroke-linejoin:round;stroke-miterlimit:4;stroke-dasharray:none;stroke-dashoffset:0;stroke-opacity:1" />
  </g>
  <g
     id="g1563"
     style="filter:url(#filter1626)">
    <circle
       transform="scale(1,-1)"
       r="71.95594"
       cy="-95.98172"
       cx="884.77899"
       id="path864-5-9"
       style="opacity:1;vector-effect:none;fill:#c909f6;fill-opacity:0.19806764;stroke:none;stroke-width:1.22811818;stroke-linecap:butt;stroke-linejoin:round;stroke-miterlimit:4;stroke-dasharray:none;stroke-dashoffset:0;stroke-opacity:1" />
    <circle
       transform="scale(1,-1)"
       r="71.95594"
       cy="-322.49731"
       cx="754.03845"
       id="path864-5-1"
       style="opacity:1;vector-effect:none;fill:#c909f6;fill-opacity:0.19806764;stroke:none;stroke-width:1.22811818;stroke-linecap:butt;stroke-linejoin:round;stroke-miterlimit:4;stroke-dasharray:none;stroke-dashoffset:0;stroke-opacity:1" />
    <circle
       transform="scale(1,-1)"
       r="71.95594"
       cy="-19.96979"
       cx="232.59654"
       id="path864-5-2"
       style="opacity:1;vector-effect:none;fill:#c909f6;fill-opacity:0.19806764;stroke:none;stroke-width:1.22811818;stroke-linecap:butt;stroke-linejoin:round;stroke-miterlimit:4;stroke-dasharray:none;stroke-dashoffset:0;stroke-opacity:1" />
    <circle
       transform="scale(1,-1)"
       r="71.95594"
       cy="-418.27237"
       cx="208.27271"
       id="path864-5-7"
       style="opacity:1;vector-effect:none;fill:#6209f6;fill-opacity:0.19806764;stroke:none;stroke-width:1.22811818;stroke-linecap:butt;stroke-linejoin:round;stroke-miterlimit:4;stroke-dasharray:none;stroke-dashoffset:0;stroke-opacity:1" />
    <circle
       transform="scale(-1,1)"
       r="71.95594"
       cy="441.28818"
       cx="-896.18073"
       id="path864-5-9-7"
       style="opacity:1;vector-effect:none;fill:#c909f6;fill-opacity:0.19806764;stroke:none;stroke-width:1.22811818;stroke-linecap:butt;stroke-linejoin:round;stroke-miterlimit:4;stroke-dasharray:none;stroke-dashoffset:0;stroke-opacity:1" />
    <circle
       transform="scale(-1,1)"
       r="71.95594"
       cy="158.52377"
       cx="-998.03674"
       id="path864-5-1-6"
       style="opacity:1;vector-effect:none;fill:#c909f6;fill-opacity:0.19806764;stroke:none;stroke-width:1.22811818;stroke-linecap:butt;stroke-linejoin:round;stroke-miterlimit:4;stroke-dasharray:none;stroke-dashoffset:0;stroke-opacity:1" />
  </g>
  <g
     id="g1555">
    <circle
       transform="scale(1,-1)"
       r="110.72203"
       cy="-240.11511"
       cx="360.2627"
       id="path864"
       style="opacity:1;vector-effect:none;fill:#a709f6;fill-opacity:0.352657;stroke:none;stroke-width:1.88976383;stroke-linecap:butt;stroke-linejoin:round;stroke-miterlimit:4;stroke-dasharray:none;stroke-dashoffset:0;stroke-opacity:1" />
    <circle
       transform="scale(1,-1)"
       r="110.72203"
       cy="-113.14194"
       cx="563.32422"
       id="path864-3"
       style="opacity:1;vector-effect:none;fill:#6209f6;fill-opacity:0.19806764;stroke:none;stroke-width:1.88976383;stroke-linecap:butt;stroke-linejoin:round;stroke-miterlimit:4;stroke-dasharray:none;stroke-dashoffset:0;stroke-opacity:1" />
    <circle
       transform="scale(-1,1)"
       r="110.72203"
       cy="167.93449"
       cx="-1381.1708"
       id="path864-0"
       style="opacity:1;vector-effect:none;fill:#a709f6;fill-opacity:0.352657;stroke:none;stroke-width:1.88976383;stroke-linecap:butt;stroke-linejoin:round;stroke-miterlimit:4;stroke-dasharray:none;stroke-dashoffset:0;stroke-opacity:1" />
  </g>
  <g
     id="g1550"
     style="filter:url(#filter1622)">
    <circle
       transform="scale(1,-1)"
       r="134.28574"
       cy="-48.094212"
       cx="1177.4249"
       id="path864-5-6"
       style="opacity:1;vector-effect:none;fill:#c909f6;fill-opacity:0.19806764;stroke:none;stroke-width:2.29194069;stroke-linecap:butt;stroke-linejoin:round;stroke-miterlimit:4;stroke-dasharray:none;stroke-dashoffset:0;stroke-opacity:1" />
    <circle
       transform="scale(-1,1)"
       r="110.72203"
       cy="367.87912"
       cx="-1188.751"
       id="path864-3-6"
       style="opacity:1;vector-effect:none;fill:#6209f6;fill-opacity:0.19806764;stroke:none;stroke-width:1.88976383;stroke-linecap:butt;stroke-linejoin:round;stroke-miterlimit:4;stroke-dasharray:none;stroke-dashoffset:0;stroke-opacity:1" />
    <circle
       transform="scale(-1,1)"
       r="134.28574"
       cy="146.36185"
       cx="-446.19012"
       id="path864-5-6-2-4"
       style="opacity:1;vector-effect:none;fill:#c909f6;fill-opacity:0.19806764;stroke:none;stroke-width:2.29194069;stroke-linecap:butt;stroke-linejoin:round;stroke-miterlimit:4;stroke-dasharray:none;stroke-dashoffset:0;stroke-opacity:1" />
  </g>
  <g
     id="g1545"
     style="filter:url(#filter1606)">
    <circle
       transform="scale(1,-1)"
       r="134.28574"
       cy="-334.65924"
       cx="1305.885"
       id="path864-5-6-2"
       style="opacity:1;vector-effect:none;fill:#c909f6;fill-opacity:0.19806764;stroke:none;stroke-width:2.29194069;stroke-linecap:butt;stroke-linejoin:round;stroke-miterlimit:4;stroke-dasharray:none;stroke-dashoffset:0;stroke-opacity:1" />
    <circle
       transform="scale(1,-1)"
       r="163.17027"
       cy="-396.98898"
       cx="1579.5281"
       id="path864-5-6-9"
       style="opacity:1;vector-effect:none;fill:#6209f6;fill-opacity:0.41545895;stroke:none;stroke-width:2.78493166;stroke-linecap:butt;stroke-linejoin:round;stroke-miterlimit:4;stroke-dasharray:none;stroke-dashoffset:0;stroke-opacity:1" />
    <circle
       transform="scale(1,-1)"
       r="163.17027"
       cy="-547.88751"
       cx="999.28821"
       id="path864-5-6-9-3"
       style="opacity:1;vector-effect:none;fill:#6209f6;fill-opacity:0.41545895;stroke:none;stroke-width:2.78493166;stroke-linecap:butt;stroke-linejoin:round;stroke-miterlimit:4;stroke-dasharray:none;stroke-dashoffset:0;stroke-opacity:1" />
    <circle
       transform="scale(1,-1)"
       r="163.17027"
       cy="-317.93658"
       cx="63.850021"
       id="path864-5-6-9-37"
       style="opacity:1;vector-effect:none;fill:#c909f6;fill-opacity:0.19806764;stroke:none;stroke-width:2.78493166;stroke-linecap:butt;stroke-linejoin:round;stroke-miterlimit:4;stroke-dasharray:none;stroke-dashoffset:0;stroke-opacity:1" />
    <circle
       transform="scale(-1,1)"
       r="134.28574"
       cy="432.92685"
       cx="-574.65021"
       id="path864-5-6-5"
       style="opacity:1;vector-effect:none;fill:#c909f6;fill-opacity:0.19806764;stroke:none;stroke-width:2.29194069;stroke-linecap:butt;stroke-linejoin:round;stroke-miterlimit:4;stroke-dasharray:none;stroke-dashoffset:0;stroke-opacity:1" />
    <circle
       transform="scale(-1,1)"
       r="163.17027"
       cy="84.032074"
       cx="-172.54707"
       id="path864-5-6-9-374"
       style="opacity:1;vector-effect:none;fill:#6209f6;fill-opacity:0.41545895;stroke:none;stroke-width:2.78493166;stroke-linecap:butt;stroke-linejoin:round;stroke-miterlimit:4;stroke-dasharray:none;stroke-dashoffset:0;stroke-opacity:1" />
    <circle
       transform="scale(-1,1)"
       r="163.17027"
       cy="-66.866447"
       cx="-752.78699"
       id="path864-5-6-9-3-5"
       style="opacity:1;vector-effect:none;fill:#6209f6;fill-opacity:0.41545895;stroke:none;stroke-width:2.78493166;stroke-linecap:butt;stroke-linejoin:round;stroke-miterlimit:4;stroke-dasharray:none;stroke-dashoffset:0;stroke-opacity:1" />
  </g>
  <text
     xml:space="preserve"
     style="font-style:normal;font-variant:normal;font-weight:normal;font-stretch:normal;font-size:83.37410736px;line-height:36.31697083px;font-family:Moderat;-inkscape-font-specification:Moderat;letter-spacing:0px;word-spacing:0px;fill:#ffffff;fill-opacity:1;stroke:none;stroke-width:2.08435249px;stroke-linecap:butt;stroke-linejoin:miter;stroke-opacity:1"
     x="401.39813"
     y="939.83417"
     id="text959"><tspan
       sodipodi:role="line"
       id="tspan957"
       x="401.39813"
       y="939.83417"
       style="font-style:normal;font-variant:normal;font-weight:600;font-stretch:normal;font-family:'Open Sans';-inkscape-font-specification:'Open Sans Semi-Bold';fill:#ffffff;fill-opacity:1;stroke-width:2.08435249px">Synesthesia Project</tspan></text>
  <g
     transform="matrix(0.82291024,0,0,0.82291024,189.63086,124.85633)"
     id="g947">
    <path
       inkscape:connector-curvature="0"
       id="path1112-9"
       d="m 528.3419,-81.530442 v 80.3571997 l -70.35169,-56.3461997 0.003,233.633502 a 44.440378,44.440378 0 0 0 -14.67139,-2.5467 44.440378,44.440378 0 0 0 -44.43647,44.4416 44.440378,44.440378 0 0 0 44.43647,44.4391 44.440378,44.440378 0 0 0 44.44165,-44.4391 V 2.2024577 L 528.34232,32.729158 V 259.61636 a 64.890472,64.890472 0 0 0 -21.42029,-3.7151 64.890472,64.890472 0 0 0 -64.8904,64.8904 64.890472,64.890472 0 0 0 64.8904,64.8878 64.890472,64.890472 0 0 0 64.89301,-64.8878 V 5.6740577 l 71.82323,54.0404003 v -48.8978 z M 687.437,-6.3340423 c -0.39623,-0.01 -0.7202,3e-4 -1.00521,0.021 -1.36796,0.098 -1.86474,0.4529 -5.45611,0.4197 -9.08732,-0.084 -16.45686,1.006 -24.73385,2.9664 l 6.00276,4.811 V 69.043958 c 3.16824,-0.6993 6.37492,-1.3021 9.63758,-1.7332 l 12.27754,14.2905 10.90963,-14.9952 c 4.23941,0.2965 8.41156,0.8238 12.50812,1.57 l 7.10123,16.9979 14.74911,-10.6998 c 4.01493,1.6118 7.92623,3.415 11.69721,5.4561 l 1.47933,18.073 17.04451,-5.5286 c 3.39479,2.8222 6.59805,5.8576 9.64016,9.052102 l -4.09856,17.3087 17.66111,0.013 c 2.39722,3.7642 4.60609,7.6625 6.55459,11.7128 l -9.16346,15.0651 16.66626,5.4302 c 1.13036,4.3408 1.99073,8.7875 2.60629,13.3165 l -13.24649,11.3863 14.15326,10.293 c -0.24238,4.5676 -0.77333,9.055 -1.53633,13.4615 l -16.18697,6.7645 10.39408,14.3242 c -1.59592,4.1737 -3.42286,8.2271 -5.47943,12.1454 l -17.74661,1.4508 5.55197,17.1119 c -2.73394,3.3843 -5.65983,6.6044 -8.75932,9.6505 l -17.62224,-4.1762 -0.0106,18.345 c -3.53442,2.3027 -7.20382,4.4114 -10.99771,6.3163 l -15.78801,-9.6091 -5.79808,17.8088 c -3.93264,1.0477 -7.9437,1.9105 -12.03402,2.5363 l -12.29567,-14.3113 -11.2542,15.4642 c -4.00372,-0.2114 -7.94777,-0.6359 -11.82934,-1.2487 l -7.43544,-17.7933 -15.8476,11.5003 c -3.5854,-1.3916 -7.07503,-2.9605 -10.47179,-4.6944 l -1.60625,-19.6327 -18.99795,6.1582 c -2.86145,-2.359 -5.59473,-4.8602 -8.21007,-7.4846 l 4.6193,-19.5057 -20.17154,-0.018 c -0.16979,-0.2686 -0.32213,-0.5461 -0.48965,-0.8161 v 38.3223 c 16.37342,16.0861 36.71629,28.1504 59.42133,34.5165 -20.00413,-0.9675 -38.69981,-6.523 -59.42133,-12.49 v 18.4228 c 48.97221,12.7326 92.9416,19.5473 147.09216,10.7723 78.67353,-12.7489 107.51548,-45.3103 146.30199,-70.0745 38.78652,-24.7641 60.03277,-67.7387 63.45773,-72.9683 9.23757,0.5413 15.76468,0.083 15.76468,0.083 0,0 -60.69551,-85.1315 -107.10142,-119.907502 -46.40589,-34.776 -96.38682,-61.3650003 -137.0893,-68.1573003 -22.25918,-3.7146 -28.63396,-4.5991 -31.40761,-4.653 z M 590.41877,42.957458 v 15.5548 c 4.42144,-0.6564 9.91841,-1.1865 17.83727,-2.1373 z m 25.25199,18.9954 c -9.17389,5.5695 -17.63759,12.1928 -25.25199,19.6767 v 44.946802 l 15.98748,-1.3083 -6.11415,-18.871 c 2.44481,-2.883 5.02879,-5.6405 7.74632,-8.264502 l 19.19743,4.549402 0.0106,-19.492802 c 3.10274,-1.9165 6.3114,-3.6801 9.60389,-5.2981 z m 166.24555,18.1196 c 15.06274,10.439 28.17299,23.055302 50.01433,38.203202 29.71906,20.6114 61.79677,52.9795 79.39859,60.4343 17.60181,7.4548 25.21353,6.9276 35.34296,7.565 -5.04319,5.1013 -34.95064,39.0177 -78.08249,63.3981 -43.13187,24.3804 -84.59993,52.0359 -135.84575,60.253 53.58512,-18.9216 92.11396,-70.061 92.11396,-130.027 0,-39.2425 -16.52247,-74.6901 -42.9416,-99.826602 z m -94.9301,59.931802 c -22.03347,-3e-4 -39.89512,17.8614 -39.89488,39.8948 10e-4,22.0315 17.86339,39.8874 39.89488,39.8872 22.0315,2e-4 39.89233,-17.8557 39.89489,-39.8872 2.4e-4,-22.0334 -17.86141,-39.8951 -39.89489,-39.8948 z m -96.56744,8.837 v 5.6685 l 3.1607,-1.3186 z m 0,63.1727 v 11.0496 l 5.61414,-9.2231 z"
       style="fill:#ffffff;fill-opacity:1;stroke:none;stroke-width:38.65135193;stroke-miterlimit:4;stroke-dasharray:none;stroke-opacity:1" />
  </g>
</svg>
